<svg width="24" height="24" viewBox="0 0 24 24" fill="none" xmlns="http://www.w3.org/2000/svg">
<path fill-rule="evenodd" clip-rule="evenodd" d="M5.47032 5.46983C5.61094 5.32938 5.80157 5.25049 6.00032 5.25049C6.19907 5.25049 6.38969 5.32938 6.53032 5.46983L18.5303 17.4698C18.604 17.5385 18.6631 17.6213 18.7041 17.7133C18.7451 17.8053 18.7671 17.9046 18.7689 18.0053C18.7707 18.106 18.7522 18.206 18.7144 18.2994C18.6767 18.3928 18.6206 18.4776 18.5494 18.5489C18.4781 18.6201 18.3933 18.6762 18.2999 18.714C18.2065 18.7517 18.1065 18.7702 18.0058 18.7684C17.9051 18.7666 17.8058 18.7446 17.7138 18.7036C17.6218 18.6626 17.539 18.6035 17.4703 18.5298L5.47032 6.52983C5.32987 6.3892 5.25098 6.19858 5.25098 5.99983C5.25098 5.80108 5.32987 5.61045 5.47032 5.46983Z" fill="white"/>
<path fill-rule="evenodd" clip-rule="evenodd" d="M18.5298 5.46983C18.6703 5.61045 18.7492 5.80108 18.7492 5.99983C18.7492 6.19858 18.6703 6.3892 18.5298 6.52983L6.52985 18.5298C6.38767 18.6623 6.19963 18.7344 6.00532 18.731C5.81102 18.7276 5.62564 18.6489 5.48822 18.5114C5.35081 18.374 5.2721 18.1887 5.26867 17.9944C5.26524 17.8 5.33737 17.612 5.46985 17.4698L17.4698 5.46983C17.6105 5.32938 17.8011 5.25049 17.9998 5.25049C18.1986 5.25049 18.3892 5.32938 18.5298 5.46983Z" fill="white"/>
</svg>
